<?xml version="1.0" encoding="UTF-8" standalone="no"?>
<svg width="790px" height="256px" viewBox="0 0 790 256" version="1.1" xmlns="http://www.w3.org/2000/svg" xmlns:xlink="http://www.w3.org/1999/xlink" xmlns:sketch="http://www.bohemiancoding.com/sketch/ns">
    <!-- Generator: Sketch 3.3.2 (12043) - http://www.bohemiancoding.com/sketch -->
    <title>Slice 1</title>
    <desc>Created with Sketch.</desc>
    <defs></defs>
    <g id="Page-1" stroke="none" stroke-width="1" fill="none" fill-rule="evenodd" sketch:type="MSPage">
        <g id="Oval-1-+-noun_8767_cc" sketch:type="MSLayerGroup" transform="translate(267.000000, 0.000000)">
            <circle id="Oval-1" fill="#EFF1F5" sketch:type="MSShapeGroup" cx="128" cy="128" r="128"></circle>
            <g id="noun_8767_cc" transform="translate(43.822660, 77.241379)" sketch:type="MSShapeGroup">
                <g id="Your_Icon" transform="translate(0.140706, 0.136587)">
                    <g id="Group">
                        <path d="M17.2353472,87.5338306 L17.2353472,14.4139998 C17.2353472,8.58136681 20.179923,3.43665193 24.6842065,0.0541160019 L15.3017252,0.0541160019 C6.9146178,0.0541160019 0.0525964107,6.51598222 0.0525964107,14.4139998 L0.0525964107,87.5338306 C0.0525964107,95.4334784 6.9146178,101.893714 15.3017252,101.893714 L24.6842065,101.893714 C20.179923,98.5111785 17.2353472,93.3664637 17.2353472,87.5338306 L17.2353472,87.5338306 Z" id="Shape" fill="#96B5B4"></path>
                        <path d="M74.7385325,101.921427 C65.1362034,101.921427 57.3220852,94.8401082 57.3220852,86.1449532 L57.3220852,15.8012471 C57.3220852,7.10283183 65.1362034,0.0247735216 74.7385325,0.0247735216 L152.386355,0.0247735216 C161.986953,0.0247735216 169.801071,7.10283183 169.801071,15.8012471 L169.801071,86.1449532 C169.801071,94.8401082 161.986953,101.921427 152.386355,101.921427 L74.7385325,101.921427 L74.7385325,101.921427 Z" id="Shape" fill="#B48EAD"></path>
                        <path d="M44.9638686,87.5338306 L44.9638686,14.4139998 C44.9638686,8.58136681 47.9101754,3.43665193 52.4109967,0.0541160019 L43.0285154,0.0541160019 C34.641408,0.0541160019 27.7776556,6.51598222 27.7776556,14.4139998 L27.7776556,87.5338306 C27.7776556,95.4334784 34.641408,101.893714 43.0285154,101.893714 L52.4109967,101.893714 C47.9084443,98.5111785 44.9638686,93.3664637 44.9638686,87.5338306 L44.9638686,87.5338306 Z" id="Shape" fill="#8EA1B3"></path>
                    </g>
                </g>
            </g>
        </g>
    </g>
</svg>